<svg width="160" height="150" viewBox="0 0 160 150" fill="none" xmlns="http://www.w3.org/2000/svg">
<path d="M0.471329 74.8372C0.471329 87.3683 12.1979 99.0666 30.6858 105.66C26.9939 125.054 30.0241 140.686 40.1453 146.777C50.5489 153.037 66.0477 148.704 80.7581 135.286C95.0974 148.162 109.59 153.23 119.702 147.121C130.095 140.843 133.256 124.151 129.463 104.152C148.719 97.5083 159.49 87.5332 159.49 74.8372C159.49 62.5966 147.742 52.0069 129.503 45.4552C133.587 24.6291 130.127 9.37691 119.587 3.0344C109.425 -3.08017 94.764 2.2493 80.2138 15.4626C65.0768 1.43773 50.5608 -2.84423 40.0309 3.51677C29.8789 9.64873 26.9819 25.5644 30.6858 45.3176C12.8221 51.8166 0.471329 62.6455 0.471329 74.8372Z" fill="#E1EBED"/>
<path d="M125.64 51.9614C124.175 51.4352 122.657 50.9373 121.094 50.4665C121.351 49.3724 121.587 48.2925 121.797 47.231C125.238 29.8001 122.988 15.7577 115.305 11.1343C107.937 6.70108 95.8886 11.3234 83.7201 22.3737C82.5499 23.4363 81.3765 24.5614 80.2036 25.7404C79.4221 24.9603 78.6418 24.2065 77.8636 23.4854C65.1106 11.6696 52.3277 6.69033 44.6519 11.3271C37.2917 15.7731 35.112 28.9744 38.2097 45.4938C38.5089 47.0894 38.8585 48.7188 39.2539 50.3755C37.4448 50.9114 35.6982 51.4827 34.0271 52.0904C19.0756 57.5298 9.52686 66.0547 9.52686 74.8973C9.52686 84.0299 19.7774 93.1901 35.3506 98.7444C36.5795 99.1827 37.8548 99.5971 39.169 99.9906C38.7424 101.782 38.3713 103.538 38.0599 105.251C35.1062 121.483 37.4129 134.373 44.7535 138.791C52.3357 143.353 65.0608 138.664 77.4518 127.361C78.4312 126.468 79.414 125.521 80.3987 124.528C81.6749 125.81 82.9491 127.024 84.2166 128.162C96.2187 138.939 108.073 143.291 115.407 138.861C122.981 134.285 125.443 120.439 122.247 103.593C122.003 102.306 121.719 100.992 121.4 99.654C122.294 99.3783 123.171 99.0938 124.026 98.7979C140.216 93.2006 150.75 84.1519 150.75 74.8973C150.75 66.0227 140.893 57.4404 125.64 51.9614Z" fill="#53C1DE"/>
<path d="M122.129 92.8223C121.357 93.0891 120.564 93.3469 119.757 93.5969C117.97 87.6927 115.557 81.4145 112.606 74.9279C115.422 68.5959 117.741 62.3979 119.479 56.532C120.923 56.9682 122.325 57.4283 123.677 57.9139C136.745 62.6083 144.717 69.5491 144.717 74.8973C144.717 80.594 136.108 87.9891 122.129 92.8223ZM116.329 104.815C117.742 112.265 117.944 118.999 117.008 124.264C116.167 128.995 114.475 132.15 112.384 133.413C107.933 136.101 98.4154 132.607 88.1511 123.39C86.9744 122.333 85.7891 121.205 84.6001 120.011C88.5794 115.47 92.5564 110.191 96.4379 104.327C103.265 103.695 109.715 102.662 115.564 101.251C115.852 102.463 116.108 103.653 116.329 104.815ZM57.6729 132.948C53.3246 134.551 49.8614 134.597 47.768 133.337C43.3134 130.656 41.4615 120.307 43.9875 106.425C44.2769 104.835 44.6213 103.202 45.0182 101.533C50.8033 102.868 57.2061 103.828 64.0495 104.407C67.9571 110.144 72.049 115.418 76.1726 120.036C75.2716 120.943 74.3742 121.807 73.4818 122.621C68.0026 127.619 62.5118 131.165 57.6729 132.948ZM37.3017 92.7874C30.4156 90.3315 24.7287 87.1395 20.8307 83.6564C17.328 80.5263 15.5596 77.4188 15.5596 74.8973C15.5596 69.5313 23.2263 62.687 36.0129 58.035C37.5644 57.4706 39.1886 56.9386 40.874 56.4389C42.6412 62.4373 44.9594 68.7087 47.7569 75.0504C44.9232 81.4863 42.5721 87.8577 40.7875 93.9264C39.586 93.566 38.4219 93.1867 37.3017 92.7874ZM44.1303 44.2848C41.4763 30.1314 43.239 19.4546 47.6745 16.7754C52.399 13.9213 62.8464 17.9907 73.8576 28.193C74.5615 28.8451 75.2681 29.5276 75.9767 30.2337C71.8735 34.8311 67.8191 40.0651 63.9462 45.7687C57.3044 46.411 50.9466 47.4429 45.1011 48.8248C44.7336 47.2821 44.4081 45.7666 44.1303 44.2848ZM105.047 59.9808C103.65 57.4622 102.215 55.0031 100.753 52.6111C105.259 53.2055 109.576 53.9945 113.63 54.96C112.413 59.0305 110.896 63.2864 109.11 67.6493C107.829 65.1115 106.474 62.5527 105.047 59.9808ZM80.2056 34.7327C82.9883 37.8785 85.7751 41.3908 88.5161 45.2016C85.754 45.0654 82.9577 44.9946 80.1382 44.9946C77.3455 44.9946 74.5698 45.0638 71.8248 45.1976C74.5685 41.4223 77.3794 37.9147 80.2056 34.7327ZM55.2046 60.0244C53.8088 62.5501 52.479 65.095 51.2181 67.6445C49.4612 63.2969 47.9583 59.0216 46.7305 54.8934C50.7598 53.9525 55.0566 53.1832 59.5338 52.6001C58.0507 55.0141 56.6043 57.4913 55.2046 60.0238V60.0244ZM59.6628 97.6435C55.037 97.105 50.6756 96.3752 46.6473 95.4603C47.8947 91.2585 49.4308 86.8919 51.2249 82.4506C52.489 84.9983 53.8241 87.5443 55.2285 90.0755H55.2288C56.6593 92.6542 58.1414 95.1802 59.6628 97.6435ZM80.3725 115.506C77.5131 112.286 74.661 108.725 71.8756 104.895C74.5796 105.006 77.3364 105.062 80.1382 105.062C83.0167 105.062 85.8623 104.995 88.6631 104.864C85.9131 108.764 83.1364 112.33 80.3725 115.506ZM109.168 82.2242C111.055 86.7135 112.647 91.0573 113.91 95.1875C109.815 96.1622 105.394 96.9473 100.736 97.5307C102.202 95.1065 103.65 92.6051 105.072 90.0322C106.51 87.4291 107.876 84.8221 109.168 82.2242ZM99.8458 86.8872C97.6382 90.8813 95.3718 94.6941 93.071 98.2932C88.8803 98.6059 84.5509 98.7669 80.1382 98.7669C75.7435 98.7669 71.4686 98.6245 67.3521 98.3457C64.9585 94.6994 62.6428 90.8753 60.4493 86.9215H60.4498C58.2621 82.9786 56.2486 79.0023 54.4241 75.0483C56.2481 71.0852 58.2563 67.1045 60.4315 63.1686L60.431 63.1694C62.6119 59.223 64.9072 55.4175 67.2787 51.794C71.4786 51.4627 75.7854 51.2899 80.138 51.2899H80.1382C84.5104 51.2899 88.8227 51.4641 93.0214 51.7982C95.3567 55.3952 97.6364 59.1884 99.8259 63.1353C102.04 67.1265 104.074 71.0807 105.914 74.9589C104.08 78.9037 102.05 82.8978 99.8458 86.8872ZM112.291 16.5881C117.02 19.4339 118.859 30.9107 115.888 45.9604C115.698 46.9207 115.485 47.8988 115.253 48.8901C109.394 47.4794 103.032 46.4297 96.3708 45.7776C92.4903 40.0113 88.4691 34.7692 84.4327 30.2308C85.5179 29.1415 86.6016 28.1027 87.6807 27.1225C98.1068 17.6546 107.851 13.9165 112.291 16.5881Z" fill="#E1EBED"/>
<path d="M80.1383 61.7382C87.1028 61.7382 92.749 67.6296 92.749 74.8972C92.749 82.1646 87.1028 88.0562 80.1383 88.0562C73.1737 88.0562 67.5275 82.1646 67.5275 74.8972C67.5275 67.6296 73.1737 61.7382 80.1383 61.7382Z" fill="#53C1DE"/>
</svg>
